<?xml version="1.0" standalone="no"?>
<!DOCTYPE svg PUBLIC "-//W3C//DTD SVG 20010904//EN"
 "http://www.w3.org/TR/2001/REC-SVG-20010904/DTD/svg10.dtd">
<svg version="1.0" xmlns="http://www.w3.org/2000/svg"
 width="1024.000000pt" height="563.000000pt" viewBox="0 0 1024.000000 563.000000"
 preserveAspectRatio="xMidYMid meet">

<g transform="translate(0.000000,563.000000) scale(0.100000,-0.100000)"
fill="#000000" stroke="none">
<path d="M2292 4974 c-132 -66 -222 -255 -222 -466 0 -113 41 -234 102 -299
96 -104 249 -115 360 -27 49 39 121 146 114 170 -2 10 3 22 12 28 15 8 15 11
2 20 -13 8 -13 10 3 10 26 0 22 38 -5 43 -20 4 -19 4 5 6 39 2 33 18 -9 26
-34 6 -36 8 -30 37 3 17 6 41 6 55 0 17 11 30 37 45 20 12 31 24 25 26 -6 2
-9 9 -6 16 19 48 -82 266 -110 238 -4 -3 -4 1 -1 10 6 16 -23 41 -42 36 -4 -1
-35 2 -69 6 -67 8 -107 25 -64 27 14 0 34 4 45 9 14 6 3 9 -41 9 -46 1 -72 -5
-112 -25z m126 -38 c64 -12 105 -26 74 -26 -7 0 -12 -5 -12 -11 0 -5 6 -7 13
-3 7 4 8 3 4 -2 -5 -5 -16 -9 -25 -9 -9 0 -16 -5 -15 -12 2 -7 -3 -10 -11 -7
-7 3 -30 -6 -51 -20 -21 -14 -34 -26 -29 -26 5 0 2 -5 -6 -10 -8 -5 -19 -10
-25 -10 -5 0 -3 5 5 10 8 5 10 10 4 10 -19 0 -24 -12 -12 -34 10 -19 9 -19 -4
-8 -12 9 -18 10 -23 2 -4 -7 -21 -20 -39 -31 -17 -10 -26 -19 -21 -19 6 0 -21
-16 -59 -35 -38 -19 -72 -33 -74 -30 -3 3 -1 5 4 5 5 0 10 16 12 36 3 47 56
146 104 195 50 51 73 55 186 35z m187 -99 c-37 -25 -132 -77 -141 -77 -5 0 18
16 51 35 33 20 67 40 75 45 24 14 37 12 15 -3z m-20 -55 c-3 -3 -11 0 -18 7
-9 10 -8 11 6 5 10 -3 15 -9 12 -12z m-128 2 c-3 -3 -12 -4 -19 -1 -8 3 -5 6
6 6 11 1 17 -2 13 -5z m90 -20 c-3 -3 -12 -4 -19 -1 -8 3 -5 6 6 6 11 1 17 -2
13 -5z m-450 -146 c-3 -8 -6 -5 -6 6 -1 11 2 17 5 13 3 -3 4 -12 1 -19z m573
-188 c0 -5 -4 -10 -10 -10 -5 0 -10 5 -10 10 0 6 5 10 10 10 6 0 10 -4 10 -10z"/>
<path d="M3047 4989 c7 -7 15 -10 18 -7 3 3 -2 9 -12 12 -14 6 -15 5 -6 -5z"/>
<path d="M3185 4889 c142 -131 231 -233 317 -366 152 -234 232 -434 316 -793
l11 -45 -5 49 c-3 26 -18 98 -34 160 -103 401 -309 756 -563 970 -31 27 -56
51 -54 53 2 1 33 -6 68 -18 85 -28 247 -115 283 -153 16 -17 26 -24 21 -16 -5
10 0 8 16 -5 54 -44 58 -65 15 -65 -26 0 -50 22 -38 35 4 5 1 5 -6 1 -7 -4
-10 -12 -7 -17 8 -12 -21 -12 -63 0 -34 10 -39 5 -19 -22 7 -9 33 -18 62 -22
28 -3 66 -8 85 -12 19 -4 41 -6 49 -4 9 1 12 -3 8 -13 -4 -10 -1 -13 9 -9 18
7 46 -16 37 -31 -3 -6 -2 -8 2 -3 5 4 15 1 24 -7 9 -8 21 -15 26 -16 6 -1 9
-7 7 -15 -1 -7 8 -21 20 -29 12 -9 17 -16 10 -16 -6 0 -12 -5 -12 -11 0 -5 4
-8 9 -4 8 5 24 -10 27 -25 3 -20 29 -58 35 -54 5 3 6 -3 2 -12 -4 -12 -3 -15
5 -10 7 4 10 2 7 -6 -2 -7 15 -26 37 -43 33 -24 50 -51 89 -135 26 -58 48
-112 49 -121 0 -25 -149 -15 -170 11 -8 11 -22 27 -30 37 -8 10 -12 14 -7 9
14 -19 7 -26 -24 -22 -17 1 -35 9 -41 17 -14 21 1 -49 18 -85 8 -16 14 -35 14
-42 0 -7 5 -16 12 -20 8 -5 9 -2 5 10 -7 19 4 15 36 -12 9 -9 29 -16 42 -17
25 -1 26 4 8 51 -6 16 138 6 155 -11 8 -7 22 -45 33 -85 17 -65 17 -79 5 -130
-8 -39 -10 -64 -3 -75 6 -11 6 -15 0 -12 -5 3 -9 -9 -9 -28 1 -18 3 -32 7 -30
3 2 5 -11 5 -30 0 -21 -4 -31 -10 -27 -6 3 -5 -2 3 -11 11 -14 11 -20 0 -34
-8 -9 -9 -14 -3 -10 11 6 12 -81 2 -99 -3 -5 -4 -17 -3 -27 2 -9 -1 -15 -6
-11 -5 3 -9 0 -9 -6 0 -6 -4 -8 -10 -5 -5 3 -10 1 -10 -5 0 -7 9 -9 23 -5 15
4 18 3 8 -3 -8 -6 -9 -11 -3 -13 6 -2 -1 -13 -16 -23 -14 -11 -22 -14 -18 -8
4 7 2 12 -4 12 -6 0 -8 4 -5 10 3 6 -1 7 -9 4 -9 -3 -16 -10 -16 -16 0 -5 5
-6 10 -3 6 3 10 1 10 -4 0 -12 -27 -10 -48 2 -8 6 -9 14 -3 26 7 13 6 18 -4
18 -8 0 -12 -3 -10 -7 2 -3 0 -12 -6 -20 -7 -12 -9 -10 -9 7 0 12 -5 25 -12
29 -8 5 -9 1 -4 -12 5 -14 4 -16 -5 -7 -6 6 -14 47 -18 90 -5 55 -7 15 -8
-142 -2 -290 -22 -518 -43 -484 -5 7 -13 -12 -20 -47 -33 -168 -102 -399 -141
-475 -16 -31 -29 -64 -29 -73 0 -24 -92 -196 -140 -262 -84 -115 -152 -194
-163 -187 -5 3 -7 2 -4 -4 4 -5 -8 -23 -26 -39 l-32 -29 25 30 c13 17 -2 5
-35 -26 -79 -74 -152 -130 -222 -170 -31 -18 -52 -34 -45 -37 6 -2 25 6 42 18
16 12 35 18 41 14 7 -4 9 -3 6 3 -4 6 6 16 23 22 17 5 28 6 25 1 -3 -5 3 -11
12 -13 17 -4 17 -5 1 -6 -10 0 -18 -5 -18 -11 0 -5 -8 -10 -17 -10 -15 0 -15
-2 -4 -9 21 -14 -49 -25 -104 -18 -46 7 -71 -7 -35 -18 68 -21 416 48 475 95
5 4 21 11 34 15 40 12 146 78 133 83 -19 6 -64 -7 -58 -17 3 -5 -1 -14 -9 -21
-12 -10 -15 -10 -15 1 1 30 35 54 78 56 32 1 48 7 58 22 9 12 22 21 30 21 23
0 196 183 265 280 110 154 451 510 489 510 23 0 137 -129 202 -229 65 -99 117
-199 343 -666 108 -224 156 -295 264 -397 201 -188 340 -227 566 -160 450 134
441 130 705 347 169 139 234 185 262 185 34 0 134 -39 204 -79 92 -54 178
-123 364 -296 311 -287 409 -360 584 -431 151 -62 311 -59 518 10 137 46 423
164 415 173 -2 2 -57 -20 -123 -48 -110 -47 -279 -107 -349 -124 -83 -20 -230
-32 -222 -18 8 13 151 83 170 83 7 0 16 3 20 6 3 4 41 7 84 9 69 2 260 42 249
52 -2 2 -32 -4 -67 -14 -46 -12 -99 -17 -189 -17 -111 0 -133 3 -197 28 -152
57 -266 136 -498 346 -274 247 -349 306 -464 364 -60 31 -163 56 -231 56 -70
0 -76 -15 -7 -17 108 -3 121 -5 132 -20 6 -7 21 -12 35 -11 16 2 24 -2 23 -10
-3 -13 7 -15 46 -12 18 1 22 -2 18 -14 -4 -10 1 -20 15 -27 15 -8 19 -8 13 1
-5 8 -1 11 10 8 10 -1 20 -9 23 -17 3 -9 0 -11 -8 -6 -9 5 -11 4 -6 -3 4 -7
16 -17 28 -23 15 -8 19 -8 14 0 -11 17 20 13 34 -4 10 -12 9 -15 -5 -15 -11 0
3 -17 39 -47 31 -26 56 -50 56 -53 0 -3 -49 -20 -110 -39 -121 -38 -123 -38
-190 26 -47 45 -215 151 -273 172 -61 22 -93 28 -67 11 13 -8 12 -10 -2 -10
-10 0 -18 7 -18 16 0 12 -6 15 -26 10 -18 -5 -24 -3 -18 5 15 25 -222 -21
-312 -60 -69 -31 -173 -104 -314 -223 -222 -186 -215 -181 -258 -173 -39 7
-133 56 -192 100 -65 47 -182 169 -222 230 -22 33 -111 205 -198 382 -87 177
-172 342 -189 367 -17 24 -31 47 -31 51 0 18 -93 139 -154 201 -75 75 -153
120 -218 125 -57 5 -56 -8 2 -16 28 -4 49 -9 46 -12 -3 -3 21 -24 52 -47 83
-61 234 -250 214 -267 -4 -3 -54 -12 -112 -18 -58 -7 -119 -14 -136 -17 -29
-5 -34 -1 -75 56 -77 108 -134 174 -182 210 -26 19 -45 40 -42 47 2 7 -1 15
-7 19 -7 5 -8 2 -3 -6 6 -9 2 -10 -16 -5 -13 4 -26 10 -29 14 -9 11 -33 14
-103 16 -37 1 -69 4 -72 6 -2 3 4 32 14 64 25 79 60 356 68 525 10 224 -17
487 -69 680 -106 397 -282 691 -555 930 -65 56 -75 61 -90 49 -17 -13 -17 -13
-3 5 14 18 13 19 -2 13 -10 -3 -17 -2 -15 3 1 6 -13 20 -31 31 -24 16 -31 17
-26 6 3 -8 13 -17 23 -20 20 -5 24 -34 4 -34 -10 0 -10 4 -1 14 10 12 7 13
-18 8 -20 -5 -25 -4 -15 3 11 8 9 12 -9 22 -12 6 -24 9 -28 6 -3 -3 0 -6 6 -6
7 0 12 -4 12 -9 0 -5 -27 -9 -60 -9 -33 0 -58 3 -56 7 2 3 -15 7 -37 8 -23 1
-67 9 -97 17 -30 9 -77 18 -103 21 -27 2 -56 10 -65 16 -10 7 14 -16 53 -52z
m452 -235 c-3 -3 -12 -4 -19 -1 -8 3 -5 6 6 6 11 1 17 -2 13 -5z m367 -430 c4
-11 1 -14 -11 -12 -9 2 -18 9 -21 16 -6 18 25 15 32 -4z m26 -61 c0 -20 -24
-11 -28 10 -2 12 1 15 12 11 9 -3 16 -13 16 -21z m20 -48 c7 -9 10 -18 7 -22
-8 -7 -37 15 -37 28 0 14 16 11 30 -6z m28 -69 c3 -12 -1 -17 -10 -14 -7 3
-15 13 -16 22 -3 12 1 17 10 14 7 -3 15 -13 16 -22z m-208 -40 c0 -2 3 -11 6
-20 9 -23 -13 -20 -26 4 -9 16 -8 20 5 20 8 0 15 -2 15 -4z m230 -26 c0 -11
-4 -20 -10 -20 -5 0 -10 2 -10 4 0 2 -3 11 -6 20 -4 11 -1 16 10 16 9 0 16 -8
16 -20z m10 -66 c0 -8 -4 -12 -10 -9 -5 3 -10 13 -10 21 0 8 5 12 10 9 6 -3
10 -13 10 -21z m-193 -976 c-3 -8 -6 -5 -6 6 -1 11 2 17 5 13 3 -3 4 -12 1
-19z m155 -148 c16 -48 17 -43 -36 -193 -30 -83 -74 -171 -96 -189 -21 -19
-35 -24 -26 -10 2 4 -5 9 -17 9 -17 2 -19 0 -7 -7 23 -15 -1 -44 -38 -48 -27
-3 -31 0 -26 15 5 14 3 14 -9 -3 -16 -21 -84 -33 -71 -13 3 5 10 6 16 3 6 -4
8 -2 4 4 -5 9 28 79 45 92 13 10 81 168 109 251 15 48 36 123 46 167 l19 81
36 -57 c20 -31 43 -77 51 -102z m-177 58 l-16 -43 7 40 c3 22 6 54 6 70 l0 30
10 -27 c7 -19 5 -38 -7 -70z m65 73 c0 -10 -7 -21 -15 -25 -11 -4 -15 1 -15
19 0 16 6 25 15 25 8 0 15 -9 15 -19z m-15 -74 c-5 -17 -12 -24 -21 -20 -18 7
-18 18 2 38 21 20 27 14 19 -18z m-17 -64 c-5 -25 -28 -28 -28 -4 0 12 6 21
16 21 9 0 14 -7 12 -17z m-30 -84 c-9 -6 -14 -3 -16 8 -2 8 2 19 10 24 9 6 14
3 16 -8 2 -8 -2 -19 -10 -24z m205 -25 c9 -9 -4 -34 -18 -34 -8 0 -11 8 -8 20
5 20 15 25 26 14z m-213 -8 c0 -16 -14 -36 -26 -36 -16 0 -16 2 -8 24 5 14 34
24 34 12z m196 -62 c-3 -9 -6 -18 -6 -20 0 -2 -7 -4 -15 -4 -13 0 -14 4 -5 20
13 24 35 27 26 4z m-222 -8 c-6 -16 -34 -30 -34 -18 0 5 5 13 12 20 16 16 29
15 22 -2z m230 -73 c-25 -18 -26 -12 -6 38 l17 44 3 -35 c3 -24 -2 -38 -14
-47z m753 41 c-3 -3 -12 -4 -19 -1 -8 3 -5 6 6 6 11 1 17 -2 13 -5z m-790 -29
c-4 -8 -11 -15 -17 -15 -14 0 -13 27 3 33 16 6 21 1 14 -18z m-223 0 c-6 -16
-24 -21 -24 -7 0 11 11 22 21 22 5 0 6 -7 3 -15z m569 9 c31 -6 35 -20 10 -28
-10 -4 -43 -28 -73 -55 -30 -27 -59 -47 -64 -44 -5 4 -6 2 -3 -4 4 -6 -5 -21
-18 -33 -29 -28 -32 -40 -7 -40 14 0 15 -2 2 -10 -17 -10 -24 -1 -33 45 -4 17
-4 24 0 16 6 -16 32 45 40 96 3 18 9 30 14 27 5 -3 9 1 9 10 0 8 6 16 13 19
20 7 80 7 110 1z m497 -14 c0 -5 -4 -10 -9 -10 -6 0 -13 5 -16 10 -3 6 1 10 9
10 9 0 16 -4 16 -10z m-365 -30 c3 -5 -1 -10 -9 -10 -8 0 -18 5 -21 10 -3 6 1
10 9 10 8 0 18 -4 21 -10z m406 -6 c12 -14 11 -16 -5 -13 -11 2 -21 10 -24 17
-5 17 13 15 29 -4z m-1141 -9 c-7 -9 -15 -13 -17 -11 -7 7 7 26 19 26 6 0 6
-6 -2 -15z m240 5 c0 -5 -9 -14 -20 -20 -22 -12 -27 -1 -8 18 14 14 28 16 28
2z m50 0 c0 -5 -5 -10 -11 -10 -5 0 -7 5 -4 10 3 6 8 10 11 10 2 0 4 -4 4 -10z
m495 -30 c8 -13 -15 -13 -35 0 -12 8 -11 10 7 10 12 0 25 -4 28 -10z m-501
-22 c-25 -82 -101 -185 -155 -214 -26 -13 -23 -6 34 88 57 95 100 148 120 148
5 0 5 -10 1 -22z m901 11 c12 -19 -5 -23 -22 -6 -16 16 -16 17 -1 17 9 0 20
-5 23 -11z m-1205 -9 c0 -5 -5 -10 -11 -10 -5 0 -7 5 -4 10 3 6 8 10 11 10 2
0 4 -4 4 -10z m230 -10 c0 -5 -5 -10 -11 -10 -5 0 -7 5 -4 10 3 6 8 10 11 10
2 0 4 -4 4 -10z m347 4 c-3 -3 -12 -4 -19 -1 -8 3 -5 6 6 6 11 1 17 -2 13 -5z
m263 -14 c8 -5 11 -12 8 -16 -10 -9 -38 3 -38 16 0 12 10 13 30 0z m-305 -20
c-3 -5 -11 -10 -16 -10 -6 0 -7 5 -4 10 3 6 11 10 16 10 6 0 7 -4 4 -10z m710
-1 c12 -19 -5 -23 -22 -6 -16 16 -16 17 -1 17 9 0 20 -5 23 -11z m-735 -29 c0
-5 -7 -10 -16 -10 -8 0 -12 5 -9 10 3 6 10 10 16 10 5 0 9 -4 9 -10z m380 -10
c8 -15 8 -20 -3 -20 -14 0 -37 19 -37 32 0 16 30 7 40 -12z m400 -20 c8 -16 8
-20 -4 -20 -9 0 -20 9 -26 20 -8 16 -8 20 4 20 9 0 20 -9 26 -20z m-1130 -24
c0 -3 -4 -8 -10 -11 -5 -3 -10 -1 -10 4 0 6 5 11 10 11 6 0 10 -2 10 -4z m770
-11 c7 -9 10 -19 6 -22 -8 -9 -38 9 -44 25 -5 17 23 15 38 -3z m-886 -10 c-4
-8 -10 -12 -15 -9 -5 3 -9 0 -9 -6 0 -6 -5 -8 -12 -4 -7 5 -9 2 -5 -8 6 -18
-35 -63 -47 -51 -4 5 -6 4 -4 -2 4 -12 -11 -17 -34 -9 -10 3 -18 12 -18 20 0
8 8 14 18 14 12 0 14 2 4 8 -15 10 -7 38 11 40 7 0 31 3 55 5 23 2 45 7 49 10
10 11 13 8 7 -8z m401 5 c-3 -5 -13 -10 -21 -10 -8 0 -12 5 -9 10 3 6 13 10
21 10 8 0 12 -4 9 -10z m883 -23 c5 -24 -15 -21 -28 4 -10 18 -9 20 7 17 10
-2 19 -11 21 -21z m-1203 -17 c-3 -5 -11 -10 -16 -10 -6 0 -7 5 -4 10 3 6 11
10 16 10 6 0 7 -4 4 -10z m280 0 c-3 -5 -11 -10 -16 -10 -6 0 -7 5 -4 10 3 6
11 10 16 10 6 0 7 -4 4 -10z m565 -20 c8 -15 8 -20 -3 -20 -14 0 -37 19 -37
32 0 16 30 7 40 -12z m-870 -19 c0 -5 -7 -12 -16 -15 -14 -5 -15 -4 -4 9 14
17 20 19 20 6z m1270 -12 c10 -18 9 -20 -7 -17 -10 2 -19 11 -21 21 -5 24 15
21 28 -4z m-48 -1 c9 -7 52 -85 96 -173 189 -381 267 -541 267 -549 0 -9 -222
-64 -263 -65 -20 -1 -38 30 -152 267 -71 147 -155 316 -185 376 -31 59 -53
111 -50 114 5 5 180 32 261 41 5 0 17 -5 26 -11z m-312 -32 c0 -2 3 -11 6 -20
4 -11 1 -16 -10 -16 -9 0 -16 2 -16 4 0 2 -3 11 -6 20 -4 11 -1 16 10 16 9 0
16 -2 16 -4z m400 -36 c8 -16 8 -20 -4 -20 -9 0 -20 9 -26 20 -8 16 -8 20 4
20 9 0 20 -9 26 -20z m-360 -34 c0 -2 3 -11 6 -20 9 -24 -23 -20 -36 4 -9 17
-8 20 10 20 11 0 20 -2 20 -4z m400 -48 c0 -15 -28 -8 -34 8 -10 26 5 39 21
19 7 -11 13 -22 13 -27z m-360 -38 c8 -16 8 -20 -4 -20 -9 0 -20 9 -26 20 -8
16 -8 20 4 20 9 0 20 -9 26 -20z m388 -23 c5 -24 -15 -21 -28 4 -10 18 -9 20
7 17 10 -2 19 -11 21 -21z m-353 -48 c4 -11 4 -23 1 -26 -8 -9 -36 17 -36 33
0 22 28 16 35 -7z m385 -3 c0 -2 3 -11 6 -20 4 -11 1 -16 -10 -16 -9 0 -16 2
-16 4 0 2 -3 11 -6 20 -4 11 -1 16 10 16 9 0 16 -2 16 -4z m-350 -65 c13 -26
13 -31 -5 -31 -16 0 -38 34 -28 44 11 11 22 6 33 -13z m388 -24 c5 -24 -15
-21 -28 4 -10 18 -9 20 7 17 10 -2 19 -11 21 -21z m-354 -53 c4 -9 4 -19 2
-22 -10 -9 -36 8 -36 23 0 20 26 19 34 -1z m386 -21 c0 -24 -25 -9 -28 17 -3
21 -2 22 12 11 9 -7 16 -20 16 -28z m-354 -48 c10 -25 -7 -40 -23 -20 -7 11
-13 22 -13 27 0 14 30 9 36 -7z m384 -6 c10 -18 9 -20 -7 -17 -10 2 -19 11
-21 21 -5 24 15 21 28 -4z m-350 -70 c10 -18 9 -20 -7 -17 -10 2 -19 11 -21
21 -5 24 15 21 28 -4z m383 6 c8 -19 -13 -31 -24 -14 -13 20 -11 29 5 29 8 0
16 -7 19 -15z m-1913 -70 c-14 -17 -40 -20 -40 -5 0 5 6 7 14 4 7 -3 16 3 20
12 4 9 9 14 13 11 3 -4 0 -13 -7 -22z m1943 10 c8 -19 -13 -31 -24 -14 -13 20
-11 29 5 29 8 0 16 -7 19 -15z m-379 -11 c4 -9 4 -19 2 -22 -10 -9 -36 8 -36
23 0 20 26 19 34 -1z m1684 -10 c-4 -3 -10 -6 -15 -6 -18 0 -43 -20 -38 -29 4
-5 -8 -12 -24 -15 -21 -4 -30 -12 -29 -22 2 -10 -8 -18 -29 -24 -23 -6 -31
-13 -26 -24 4 -11 0 -15 -13 -12 -12 2 -23 -5 -29 -19 -5 -13 -17 -23 -26 -23
-16 0 -34 -15 -41 -35 -1 -5 -11 -10 -20 -9 -10 0 -19 -3 -19 -8 -1 -4 -2 -12
-3 -18 0 -5 -5 -10 -11 -11 -20 -2 -45 -20 -40 -29 3 -4 -9 -13 -26 -19 -17
-6 -28 -15 -24 -21 3 -5 -2 -10 -13 -10 -11 0 -25 -7 -32 -15 -36 -44 -251
-107 -276 -82 -4 4 1 7 12 7 24 0 94 57 91 73 -1 7 4 11 11 9 17 -3 52 16 52
29 0 6 -4 7 -10 4 -5 -3 -10 -1 -10 5 0 6 8 9 18 6 12 -4 27 3 42 19 22 23 22
25 5 19 -11 -4 -17 -4 -14 0 4 4 17 9 30 11 13 3 34 16 46 30 13 14 27 25 31
25 4 1 23 15 42 32 19 17 29 28 23 24 -7 -4 -13 -3 -13 3 0 5 12 11 28 13 16
2 27 9 27 18 0 8 11 17 25 19 14 1 28 8 32 14 4 6 60 26 125 43 122 32 150 38
141 28z m222 -24 c0 -13 -11 -13 -30 0 -12 8 -11 10 8 10 12 0 22 -4 22 -10z
m-1492 -18 c3 -9 -2 -13 -14 -10 -9 1 -19 9 -22 16 -3 9 2 13 14 10 9 -1 19
-9 22 -16z m-384 -8 c4 -9 4 -19 2 -22 -10 -9 -36 8 -36 23 0 20 26 19 34 -1z
m1936 -4 c0 -13 -11 -13 -30 0 -12 8 -11 10 8 10 12 0 22 -4 22 -10z m-3853
-26 c-3 -3 -12 -4 -19 -1 -8 3 -5 6 6 6 11 1 17 -2 13 -5z m2331 -12 c3 -9 -2
-13 -14 -10 -9 1 -19 9 -22 16 -3 9 2 13 14 10 9 -1 19 -9 22 -16z m1578 3
c16 -12 16 -14 3 -15 -9 0 -22 7 -29 15 -16 19 0 19 26 0z m414 -10 c16 -19 1
-19 -24 0 -16 12 -17 15 -4 15 8 0 21 -7 28 -15z m-2376 -11 c8 -22 8 -24 -8
-24 -15 0 -28 24 -19 34 11 10 21 7 27 -10z m414 -33 c3 -8 -1 -12 -9 -9 -7 2
-15 10 -17 17 -3 8 1 12 9 9 7 -2 15 -10 17 -17z m1617 8 c12 -19 -5 -23 -22
-6 -16 16 -16 17 -1 17 9 0 20 -5 23 -11z m411 -27 c-3 -2 -14 2 -25 10 -12 8
-18 18 -14 21 3 4 15 0 25 -10 10 -9 16 -18 14 -21z m-2018 -44 c117 -127 269
-230 327 -222 24 3 26 2 10 -4 -19 -9 -19 -9 3 -16 12 -4 32 -4 45 0 20 6 20
5 -4 -15 -40 -32 -118 -62 -179 -71 -30 -4 -64 -10 -75 -15 -15 -5 -17 -4 -6
3 12 9 9 12 -15 17 -117 24 -208 74 -314 172 -75 70 -136 141 -127 149 5 6
170 49 217 57 54 9 62 6 118 -55z m-390 34 c3 -9 -2 -13 -14 -10 -9 1 -19 9
-22 16 -3 9 2 13 14 10 9 -1 19 -9 22 -16z m413 -8 c12 -14 11 -16 -5 -13 -11
2 -21 10 -24 17 -5 17 13 15 29 -4z m769 12 c0 -3 -4 -8 -10 -11 -5 -3 -10 -1
-10 4 0 6 5 11 10 11 6 0 10 -2 10 -4z m870 -11 c7 -9 10 -18 7 -22 -8 -7 -37
15 -37 28 0 14 16 11 30 -6z m420 -30 c10 -12 10 -15 -3 -15 -8 0 -20 7 -27
15 -10 12 -10 15 3 15 8 0 20 -7 27 -15z m-2439 -11 c12 -14 11 -16 -5 -13
-11 2 -21 10 -24 17 -5 17 13 15 29 -4z m1089 6 c0 -5 -5 -10 -11 -10 -5 0 -7
5 -4 10 3 6 8 10 11 10 2 0 4 -4 4 -10z m1343 -29 c25 -21 65 -57 89 -79 114
-107 183 -162 198 -157 19 6 45 -10 36 -23 -3 -5 0 -15 8 -21 11 -9 15 -9 19
1 3 9 11 7 28 -9 15 -14 18 -23 10 -23 -11 0 -11 -3 -1 -15 9 -11 16 -12 25
-5 8 6 18 5 31 -5 12 -9 14 -14 6 -15 -7 0 -10 -5 -6 -11 3 -6 16 -8 28 -5 26
6 51 -7 42 -23 -7 -11 -2 -13 39 -15 11 -1 21 -5 22 -10 3 -16 27 -25 58 -20
23 4 27 3 15 -5 -8 -6 -10 -11 -4 -11 6 0 11 -6 11 -14 0 -7 -35 -31 -78 -51
-69 -34 -82 -37 -128 -31 -87 12 -234 82 -326 157 -159 130 -385 335 -385 350
0 6 188 75 212 78 4 1 27 -16 51 -38z m-1989 0 c10 -10 14 -21 9 -24 -8 -5
-53 26 -53 37 0 13 28 5 44 -13z m1646 4 c10 -12 10 -15 -3 -15 -8 0 -20 7
-27 15 -10 12 -10 15 3 15 8 0 20 -7 27 -15z m-2053 -41 c-9 -10 -38 16 -31
28 4 6 13 4 22 -6 9 -8 13 -19 9 -22z m2473 6 c0 -14 -14 -12 -28 2 -19 19
-14 30 8 18 11 -6 20 -15 20 -20z m-354 -24 c10 -8 15 -18 11 -22 -4 -4 -17 2
-29 14 -25 25 -13 30 18 8z m-1643 -10 c10 -8 14 -17 9 -20 -6 -3 -21 3 -33
14 -28 23 -5 28 24 6z m2045 -8 c19 -19 14 -30 -8 -18 -11 6 -20 15 -20 20 0
14 14 12 28 -2z m-2453 -18 c18 -19 17 -20 -1 -20 -20 0 -44 17 -44 32 0 15
27 8 45 -12z m482 -37 c-9 -8 -48 8 -42 18 4 5 14 5 26 -2 12 -6 18 -13 16
-16z m1638 7 c14 -16 15 -20 4 -20 -16 0 -39 19 -39 32 0 14 16 9 35 -12z
m405 -15 c10 -12 10 -15 -3 -15 -8 0 -20 7 -27 15 -10 12 -10 15 3 15 8 0 20
-7 27 -15z m-2457 -19 c13 -10 15 -16 7 -21 -7 -4 -22 2 -33 14 -25 24 -4 30
26 7z m467 4 c8 -5 12 -12 9 -15 -8 -8 -39 5 -39 16 0 11 11 11 30 -1z m1646
-24 c10 -8 15 -18 11 -22 -4 -4 -17 2 -29 14 -25 25 -13 30 18 8z m398 -11
c11 -8 17 -17 14 -21 -7 -6 -48 17 -48 28 0 12 13 9 34 -7z m-2436 -32 c5 -18
-10 -16 -34 2 -18 15 -18 15 5 13 14 -2 26 -9 29 -15z m2107 -23 c14 -16 15
-20 4 -20 -16 0 -39 19 -39 32 0 14 16 9 35 -12z m-2045 -10 c12 -8 11 -10 -7
-10 -12 0 -25 5 -28 10 -8 13 15 13 35 0z m60 -30 c0 -5 -4 -10 -9 -10 -6 0
-13 5 -16 10 -3 6 1 10 9 10 9 0 16 -4 16 -10z m2050 -15 c21 -25 1 -31 -22
-7 -18 18 -19 22 -6 22 8 0 21 -7 28 -15z m75 -65 c3 -6 0 -10 -7 -10 -15 0
-38 19 -38 32 0 10 36 -8 45 -22z m55 -45 c16 -19 0 -19 -26 0 -16 12 -16 14
-3 15 9 0 22 -7 29 -15z m75 -55 c8 -13 -1 -13 -26 0 -10 6 -19 15 -19 21 0
11 35 -5 45 -21z m60 -31 c11 -17 0 -20 -21 -4 -17 13 -17 14 -2 15 9 0 20 -5
23 -11z m75 -39 c13 -9 13 -10 0 -10 -8 0 -22 5 -30 10 -13 9 -13 10 0 10 8 0
22 -5 30 -10z m67 -26 c-3 -3 -12 -4 -19 -1 -8 3 -5 6 6 6 11 1 17 -2 13 -5z"/>
<path d="M3862 2387 c10 -8 14 -18 10 -22 -4 -5 -1 -5 6 -1 17 10 15 14 -10
26 -21 10 -21 10 -6 -3z"/>
<path d="M3840 2370 c0 -5 5 -10 11 -10 5 0 7 5 4 10 -3 6 -8 10 -11 10 -2 0
-4 -4 -4 -10z"/>
<path d="M3738 2277 c-7 -8 -20 -12 -28 -9 -8 3 -4 -5 9 -17 26 -23 36 -27 26
-11 -3 5 -1 19 5 30 12 23 7 26 -12 7z"/>
<path d="M3756 2261 c-4 -5 -2 -12 3 -15 5 -4 12 -2 15 3 4 5 2 12 -3 15 -5 4
-12 2 -15 -3z"/>
<path d="M7915 1090 c-3 -5 1 -10 10 -10 9 0 13 5 10 10 -3 6 -8 10 -10 10 -2
0 -7 -4 -10 -10z"/>
<path d="M3524 4926 c11 -9 24 -16 30 -16 12 0 7 5 -24 19 -24 11 -24 11 -6
-3z"/>
<path d="M3185 4396 c-64 -21 -97 -41 -147 -91 -91 -93 -139 -230 -140 -399
-1 -121 17 -190 71 -273 45 -67 65 -86 135 -121 224 -113 461 87 482 407 7 95
6 97 -17 109 -13 7 -16 10 -6 8 34 -10 10 67 -32 100 -11 9 -11 15 -2 30 11
17 11 17 6 -6 -5 -21 -4 -22 5 -7 15 24 -40 127 -93 172 -79 68 -184 97 -262
71z m-5 -48 c0 -7 -4 -7 -13 0 -7 6 -19 7 -26 3 -9 -6 -5 -10 14 -15 14 -4 30
-4 35 -1 4 3 6 -4 3 -16 -5 -16 -8 -18 -15 -7 -7 9 -8 7 -5 -9 3 -15 1 -20 -8
-17 -7 3 -11 13 -8 23 3 13 -3 20 -19 25 -22 6 -22 7 -5 20 20 15 47 11 47 -6z
m-36 -39 c-6 -11 -31 -12 -37 -1 -3 4 6 8 19 8 13 1 21 -2 18 -7z"/>
<path d="M1535 4271 c-22 -10 -60 -39 -83 -65 -109 -118 -151 -343 -97 -513
74 -231 284 -306 428 -151 47 50 79 112 102 200 24 91 17 247 -16 335 -27 75
-85 155 -117 163 -13 3 -23 9 -22 15 4 25 -18 10 -47 -34 -33 -51 -29 -49
-111 -42 -8 1 -10 6 -6 14 5 8 2 8 -9 -2 -21 -17 -22 -3 -2 25 8 12 12 24 9
27 -3 2 7 14 22 26 22 17 24 21 8 20 -11 0 -37 -8 -59 -18z m3 -37 c-9 -9 -21
-13 -27 -9 -16 10 -3 25 22 25 20 0 20 -1 5 -16z m189 -30 c-3 -3 -12 -4 -19
-1 -8 3 -5 6 6 6 11 1 17 -2 13 -5z m-209 -16 c-3 -7 -11 -13 -18 -13 -7 0
-15 6 -17 13 -3 7 4 12 17 12 13 0 20 -5 18 -12z m-85 -70 c-14 -35 -36 -94
-49 -133 -26 -81 -32 -62 -8 28 18 72 64 167 80 167 1 0 -9 -28 -23 -62z m65
20 c-3 -7 -15 -15 -28 -16 -21 -3 -22 -2 -11 12 16 19 44 21 39 4z m99 -7 l32
-1 -35 -77 c-46 -101 -109 -291 -124 -378 -19 -104 -24 -108 -56 -43 l-27 56
17 74 c9 40 19 82 21 93 19 82 30 113 38 108 6 -3 7 -1 4 4 -8 12 23 114 32
109 3 -2 7 7 8 21 1 28 17 42 42 38 9 -2 30 -4 48 -4z m83 -21 c0 -5 -7 -10
-16 -10 -8 0 -12 5 -9 10 3 6 10 10 16 10 5 0 9 -4 9 -10z m-207 -36 c-7 -18
-33 -18 -33 -1 0 19 10 27 25 20 8 -2 11 -11 8 -19z m177 -13 c0 -12 -20 -25
-27 -18 -7 7 6 27 18 27 5 0 9 -4 9 -9z m-196 -36 c-4 -8 -15 -15 -25 -15 -12
0 -16 5 -13 15 4 8 15 15 25 15 12 0 16 -5 13 -15z m171 -25 c-3 -5 -10 -10
-16 -10 -5 0 -9 5 -9 10 0 6 7 10 16 10 8 0 12 -4 9 -10z m-185 -25 c0 -16
-27 -32 -37 -22 -3 4 -3 13 0 22 8 20 37 20 37 0z m164 -29 c-3 -8 -12 -12
-20 -9 -17 6 -9 23 11 23 8 0 12 -6 9 -14z m-184 -31 c0 -8 -9 -15 -20 -15
-20 0 -26 11 -13 23 12 13 33 7 33 -8z m165 -26 c-4 -5 -13 -9 -22 -9 -13 0
-13 3 -3 15 13 15 35 11 25 -6z m-181 -34 c-4 -8 -12 -15 -20 -15 -8 0 -14 7
-14 15 0 8 9 15 20 15 13 0 18 -5 14 -15z m164 -17 c-6 -18 -28 -21 -28 -4 0
9 7 16 16 16 9 0 14 -5 12 -12z m-178 -43 c0 -8 -7 -15 -15 -15 -8 0 -15 7
-15 15 0 8 7 15 15 15 8 0 15 -7 15 -15z m158 -27 c-6 -18 -28 -21 -28 -4 0 9
7 16 16 16 9 0 14 -5 12 -12z m-18 -63 c0 -8 -7 -15 -15 -15 -16 0 -20 12 -8
23 11 12 23 8 23 -8z m-10 -60 c0 -8 -7 -15 -15 -15 -8 0 -15 7 -15 15 0 8 7
15 15 15 8 0 15 -7 15 -15z m-12 -63 c-5 -23 -28 -27 -28 -4 0 10 7 19 15 19
9 0 15 -7 13 -15z"/>
<path d="M2215 3768 c-11 -6 -29 -20 -40 -31 -20 -19 -20 -19 0 -9 24 13 72
52 65 51 -3 0 -14 -5 -25 -11z"/>
<path d="M2319 3767 c-54 -15 -128 -66 -159 -110 -22 -31 -21 -30 17 6 21 20
43 34 48 30 4 -5 5 -3 2 4 -15 25 54 39 225 45 59 3 64 4 43 15 -36 19 -125
24 -176 10z"/>
<path d="M2288 3723 c7 -3 16 -2 19 1 4 3 -2 6 -13 5 -11 0 -14 -3 -6 -6z"/>
<path d="M2660 3713 c0 -5 10 -18 23 -29 l22 -19 -20 25 c-11 14 -21 27 -22
29 -2 2 -3 0 -3 -6z"/>
<path d="M3861 3674 c0 -11 3 -14 6 -6 3 7 2 16 -1 19 -3 4 -6 -2 -5 -13z"/>
<path d="M3832 3650 c0 -19 2 -27 5 -17 2 9 2 25 0 35 -3 9 -5 1 -5 -18z"/>
<path d="M2731 3606 c12 -20 23 -36 25 -36 7 0 -25 58 -36 65 -5 3 -1 -10 11
-29z"/>
<path d="M3872 3615 c0 -16 2 -22 5 -12 2 9 2 23 0 30 -3 6 -5 -1 -5 -18z"/>
<path d="M2618 3578 c-33 -69 -51 -125 -45 -141 4 -7 6 -6 6 4 2 29 42 110 51
104 6 -3 7 1 4 9 -3 8 4 24 16 36 19 19 20 40 1 40 -4 0 -19 -24 -33 -52z"/>
<path d="M2123 3608 c-15 -20 -25 -38 -20 -38 3 0 12 11 21 25 17 26 16 35 -1
13z"/>
<path d="M3842 3585 c0 -16 2 -22 5 -12 2 9 2 23 0 30 -3 6 -5 -1 -5 -18z"/>
<path d="M2646 3573 c-6 -14 -5 -15 5 -6 7 7 10 15 7 18 -3 3 -9 -2 -12 -12z"/>
<path d="M3881 3554 c0 -11 3 -14 6 -6 3 7 2 16 -1 19 -3 4 -6 -2 -5 -13z"/>
<path d="M3852 3495 c0 -16 2 -22 5 -12 2 9 2 23 0 30 -3 6 -5 -1 -5 -18z"/>
<path d="M3910 3421 c0 -17 4 -32 8 -35 4 -2 6 11 4 30 -5 42 -12 45 -12 5z"/>
<path d="M2562 3395 c0 -16 2 -22 5 -12 2 9 2 23 0 30 -3 6 -5 -1 -5 -18z"/>
<path d="M4003 3353 c0 -9 4 -10 14 -2 7 6 13 12 13 14 0 1 -6 2 -13 2 -8 0
-14 -6 -14 -14z"/>
<path d="M2555 3250 c2 -91 8 -130 28 -187 33 -96 75 -169 90 -154 7 7 6 16
-5 28 -49 56 -87 181 -109 363 -6 52 -7 43 -4 -50z"/>
<path d="M3975 3331 c-3 -5 -2 -12 3 -15 5 -3 9 1 9 9 0 17 -3 19 -12 6z"/>
<path d="M2021 3199 c-1 -52 33 -177 67 -245 68 -133 169 -206 298 -212 56 -3
81 0 122 18 28 12 57 30 64 39 11 14 11 14 -3 4 -8 -7 -26 -10 -40 -7 -19 5
-21 3 -9 -5 8 -6 10 -11 4 -11 -6 0 -17 7 -24 15 -7 8 -16 13 -20 10 -4 -2
-22 0 -41 6 -45 13 -68 19 -104 26 -16 3 -32 8 -35 12 -3 4 -12 7 -20 7 -43 3
-78 17 -73 30 5 13 0 15 -35 18 -7 1 -17 8 -22 16 -5 8 -10 10 -10 5 0 -6 3
-15 8 -21 4 -5 -3 2 -16 16 -40 44 -77 138 -98 250 -9 50 -12 57 -13 29z m169
-309 c0 -5 -4 -10 -10 -10 -5 0 -10 5 -10 10 0 6 5 10 10 10 6 0 10 -4 10 -10z"/>
<path d="M1992 3140 c0 -14 2 -19 5 -12 2 6 2 18 0 25 -3 6 -5 1 -5 -13z"/>
<path d="M1581 3048 c-77 -13 -160 -98 -202 -205 -17 -45 -23 -86 -27 -178 -4
-108 -1 -138 23 -215 24 -77 92 -162 156 -194 29 -14 62 -25 73 -25 18 1 18 2
3 6 -9 2 -14 9 -11 15 4 7 2 8 -4 4 -7 -4 -23 17 -43 56 -34 67 -109 269 -109
293 0 11 11 15 38 15 51 0 69 -21 127 -148 25 -56 64 -132 85 -167 l38 -66 43
33 c88 68 140 200 140 357 -1 175 -69 324 -177 387 -57 34 -98 42 -153 32z
m-73 -107 c-15 -5 -21 7 -13 26 7 17 8 17 15 -2 4 -11 3 -22 -2 -24z m-42 -25
c4 -30 34 -154 48 -198 l14 -48 -53 0 c-51 0 -53 1 -60 33 -24 109 -24 109 6
176 27 60 40 70 45 37z m58 -21 c3 -9 0 -15 -9 -15 -8 0 -15 7 -15 15 0 8 4
15 9 15 5 0 11 -7 15 -15z m14 -63 c2 -7 -3 -12 -12 -12 -9 0 -16 7 -16 16 0
17 22 14 28 -4z m12 -62 c0 -5 -4 -10 -9 -10 -6 0 -13 5 -16 10 -3 6 1 10 9
10 9 0 16 -4 16 -10z m-168 -52 c-9 -9 -12 -7 -12 12 0 19 3 21 12 12 9 -9 9
-15 0 -24z m188 -8 c0 -5 -4 -10 -9 -10 -6 0 -13 5 -16 10 -3 6 1 10 9 10 9 0
16 -4 16 -10z m-170 -40 c0 -11 -7 -20 -15 -20 -8 0 -15 9 -15 20 0 11 7 20
15 20 8 0 15 -9 15 -20z m20 -66 c0 -17 -26 -19 -36 -3 -7 12 15 31 28 23 4
-3 8 -12 8 -20z m130 5 c0 -6 -4 -7 -10 -4 -5 3 -10 11 -10 16 0 6 5 7 10 4 6
-3 10 -11 10 -16z m58 -18 c3 -8 -1 -12 -9 -9 -7 2 -15 10 -17 17 -3 8 1 12 9
9 7 -2 15 -10 17 -17z m-175 -35 c7 -16 -1 -26 -20 -26 -7 0 -13 9 -13 20 0
23 25 27 33 6z m197 -16 c0 -5 -4 -10 -9 -10 -6 0 -13 5 -16 10 -3 6 1 10 9
10 9 0 16 -4 16 -10z m-176 -46 c4 -11 0 -15 -16 -12 -12 2 -23 9 -26 16 -6
18 35 15 42 -4z m201 -4 c3 -5 -1 -10 -9 -10 -8 0 -18 5 -21 10 -3 6 1 10 9
10 8 0 18 -4 21 -10z m-185 -45 c10 -12 9 -16 -5 -21 -17 -7 -38 13 -29 28 8
12 20 10 34 -7z m205 -6 c12 -19 -5 -23 -22 -6 -16 16 -16 17 -1 17 9 0 20 -5
23 -11z m-177 -56 c6 -19 -35 -16 -42 3 -4 11 0 15 16 12 12 -2 23 -9 26 -15z
m208 -11 c-9 -9 -37 8 -31 18 5 8 11 7 21 -1 8 -6 12 -14 10 -17z m-188 -39
c2 -8 -5 -13 -17 -13 -12 0 -21 6 -21 16 0 18 31 15 38 -3z m207 7 c3 -5 -1
-10 -9 -10 -9 0 -16 5 -16 10 0 6 4 10 9 10 6 0 13 -4 16 -10z m-181 -55 c3
-8 2 -15 -3 -15 -5 0 -14 7 -21 15 -10 12 -10 15 3 15 8 0 17 -7 21 -15z m216
-5 c0 -5 -4 -10 -9 -10 -6 0 -13 5 -16 10 -3 6 1 10 9 10 9 0 16 -4 16 -10z"/>
<path d="M3187 3029 c-63 -15 -112 -45 -164 -103 -136 -148 -158 -426 -51
-628 84 -158 269 -224 415 -149 69 35 179 172 166 208 -2 6 1 14 6 18 6 3 11
11 11 16 0 6 -5 7 -11 3 -16 -10 -2 46 17 67 8 8 14 19 14 24 0 16 -37 -41
-48 -74 -14 -40 -15 -51 -3 -32 7 10 9 7 8 -12 -2 -32 -9 -28 -31 22 -14 30
-16 43 -7 53 83 98 91 115 86 170 -14 128 -77 266 -153 337 -70 65 -178 99
-255 80z m368 -489 c-3 -5 -12 -10 -18 -10 -7 0 -6 4 3 10 19 12 23 12 15 0z
m-35 -44 c0 -3 -4 -8 -10 -11 -5 -3 -10 -1 -10 4 0 6 5 11 10 11 6 0 10 -2 10
-4z m-375 -186 c3 -5 1 -10 -4 -10 -6 0 -11 5 -11 10 0 6 2 10 4 10 3 0 8 -4
11 -10z m-49 -27 c0 -10 5 -17 12 -15 7 1 23 -4 35 -13 12 -8 16 -15 10 -15
-7 0 -15 5 -18 10 -10 16 -23 12 -30 -10 -6 -20 -30 -27 -38 -12 -4 7 20 72
27 72 2 0 3 -8 2 -17z m56 2 c3 3 5 -1 5 -9 0 -12 -4 -12 -24 1 -28 18 -31 28
-4 14 10 -6 20 -8 23 -6z m-102 -15 c6 -11 8 -20 6 -20 -3 0 -10 9 -16 20 -6
11 -8 20 -6 20 3 0 10 -9 16 -20z m123 -82 c-27 -27 -34 -29 -47 -18 -24 19
-20 26 24 39 27 8 38 16 34 24 -5 8 -3 8 7 -1 11 -10 8 -18 -18 -44z m17 -22
c0 -2 -7 -6 -15 -10 -8 -3 -15 -1 -15 4 0 6 7 10 15 10 8 0 15 -2 15 -4z"/>
<path d="M3084 2251 c4 -5 1 -12 -4 -14 -6 -3 -5 -4 2 -3 15 3 23 26 8 26 -6
0 -9 -4 -6 -9z"/>
<path d="M2730 2890 c-6 -11 -8 -20 -6 -20 3 0 10 9 16 20 6 11 8 20 6 20 -3
0 -10 -9 -16 -20z"/>
<path d="M2145 2810 c10 -11 20 -20 23 -20 3 0 -3 9 -13 20 -10 11 -20 20 -23
20 -3 0 3 -9 13 -20z"/>
<path d="M2679 2813 c-13 -16 -12 -17 4 -4 9 7 17 15 17 17 0 8 -8 3 -21 -13z"/>
<path d="M3527 2447 l-17 -32 20 24 c17 20 26 41 18 41 -2 0 -11 -15 -21 -33z"/>
<path d="M3571 2424 c0 -11 3 -14 6 -6 3 7 2 16 -1 19 -3 4 -6 -2 -5 -13z"/>
<path d="M2312 2387 c-50 -16 -125 -88 -161 -157 -98 -184 -64 -479 70 -612
88 -87 210 -112 305 -62 87 46 130 102 165 215 19 60 19 61 0 77 -11 10 -23
34 -27 54 -6 35 -5 37 27 47 l34 9 -35 1 c-23 1 -30 4 -22 10 11 6 10 11 -4
25 -23 24 -3 46 26 28 17 -10 20 -10 20 3 0 8 -8 15 -17 16 -16 0 -16 1 1 8
17 6 14 10 -18 29 -40 23 -47 51 -16 59 11 3 20 8 20 11 0 3 -16 33 -35 68
-79 141 -212 210 -333 171z m355 -323 c-3 -3 -12 -4 -19 -1 -8 3 -5 6 6 6 11
1 17 -2 13 -5z m-388 -324 c10 0 11 -3 2 -13 -6 -8 -8 -16 -5 -20 3 -3 -4 -3
-17 0 -15 4 -20 3 -15 -6 5 -7 2 -10 -6 -9 -7 2 -12 -3 -10 -10 1 -8 -2 -11
-8 -7 -8 5 -7 12 2 23 11 13 10 15 -5 9 -11 -4 -16 -3 -12 3 3 6 1 10 -4 10
-6 0 -11 7 -11 15 0 8 5 15 10 15 6 0 9 -5 8 -11 -2 -6 2 -13 9 -16 7 -3 9 3
6 16 -3 12 -10 22 -17 22 -6 1 -17 2 -25 3 -7 0 -17 11 -22 23 -7 20 -3 19 49
-13 31 -18 63 -34 71 -34z m31 -30 c0 -5 -2 -10 -4 -10 -3 0 -8 5 -11 10 -3 6
-1 10 4 10 6 0 11 -4 11 -10z m35 -10 c-3 -5 -12 -10 -18 -10 -7 0 -6 4 3 10
19 12 23 12 15 0z m-42 -17 c-7 -2 -19 -2 -25 0 -7 3 -2 5 12 5 14 0 19 -2 13
-5z m-18 -63 c3 -6 -1 -7 -9 -4 -18 7 -21 14 -7 14 6 0 13 -4 16 -10z m73 -1
c-24 -15 -1 -19 28 -4 31 16 44 10 47 -22 0 -13 7 -20 17 -18 9 1 14 10 12 24
-4 25 19 29 41 6 8 -8 17 -12 21 -10 3 3 1 -1 -5 -8 -8 -9 -13 -8 -23 6 -19
25 -27 21 -14 -8 9 -20 14 -22 30 -14 11 6 22 8 25 6 2 -3 -5 -11 -17 -17 -16
-9 -25 -8 -36 1 -12 10 -15 10 -12 -2 5 -24 -90 -15 -140 14 -26 14 -39 27
-33 32 6 3 9 9 7 13 -2 4 11 7 30 8 21 0 30 -2 22 -7z m95 -19 c3 -11 1 -18
-4 -14 -5 3 -9 12 -9 20 0 20 7 17 13 -6z"/>
<path d="M2233 1734 c1 -15 6 -20 19 -16 10 2 15 8 12 13 -3 5 -9 7 -14 4 -4
-3 -10 1 -13 7 -3 7 -5 4 -4 -8z"/>
<path d="M2316 1605 c-3 -8 -2 -14 2 -13 4 1 17 -3 30 -10 14 -8 22 -9 22 -2
0 5 -4 10 -9 10 -5 0 -16 7 -24 15 -13 13 -16 13 -21 0z"/>
<path d="M2412 1600 c0 -14 2 -19 5 -12 2 6 2 18 0 25 -3 6 -5 1 -5 -13z"/>
<path d="M2385 1600 c-3 -5 -1 -10 4 -10 6 0 11 5 11 10 0 6 -2 10 -4 10 -3 0
-8 -4 -11 -10z"/>
<path d="M3088 1493 c7 -3 16 -2 19 1 4 3 -2 6 -13 5 -11 0 -14 -3 -6 -6z"/>
<path d="M9375 1200 c-3 -6 1 -7 9 -4 18 7 21 14 7 14 -6 0 -13 -4 -16 -10z"/>
<path d="M9228 1136 c-26 -13 -45 -26 -41 -30 4 -4 0 -4 -10 0 -10 3 -17 1
-17 -5 0 -6 -21 -22 -47 -35 -27 -14 -45 -25 -41 -26 13 0 122 50 128 60 3 4
25 20 50 34 55 32 42 33 -22 2z"/>
<path d="M8975 1005 c-38 -18 -65 -33 -60 -33 6 -1 42 14 80 33 39 18 66 33
60 33 -5 1 -41 -14 -80 -33z"/>
<path d="M8805 960 c-13 -6 -15 -9 -5 -9 8 0 22 4 30 9 18 12 2 12 -25 0z"/>
</g>
</svg>
