<?xml version="1.0" standalone="no"?>
<!DOCTYPE svg PUBLIC "-//W3C//DTD SVG 20010904//EN"
 "http://www.w3.org/TR/2001/REC-SVG-20010904/DTD/svg10.dtd">
<svg version="1.0" xmlns="http://www.w3.org/2000/svg"
 width="32.000000pt" height="32.000000pt" viewBox="0 0 32.000000 32.000000"
 preserveAspectRatio="xMidYMid meet">

<g transform="translate(0.000000,32.000000) scale(0.100000,-0.100000)"
fill="#000000" stroke="none">
<path d="M72 255 c0 -16 2 -22 5 -12 2 9 2 23 0 30 -3 6 -5 -1 -5 -18z"/>
<path d="M106 269 c3 -10 1 -20 -5 -24 -14 -8 -14 -45 -1 -45 6 0 10 12 11 28
0 24 1 25 9 7 6 -14 9 -16 9 -4 1 8 -6 24 -14 35 -11 14 -14 15 -9 3z"/>
<path d="M47 225 c-4 -8 -2 -17 3 -20 6 -4 10 3 10 14 0 25 -6 27 -13 6z"/>
<path d="M119 168 c-1 -24 -4 -33 -6 -20 -2 12 -9 22 -14 22 -13 0 -11 -34 3
-48 8 -8 8 -15 -2 -27 -7 -8 -10 -15 -6 -15 3 0 13 11 22 24 19 30 30 106 14
106 -5 0 -11 -19 -11 -42z"/>
<path d="M40 156 c0 -8 5 -18 10 -21 6 -3 10 3 10 14 0 12 -4 21 -10 21 -5 0
-10 -6 -10 -14z"/>
<path d="M67 120 c-3 -11 -1 -23 4 -26 5 -3 9 6 9 20 0 31 -6 34 -13 6z"/>
</g>
</svg>
